<?xml version="1.0" encoding="utf-8"?>
<!-- Generator: Adobe Illustrator 19.2.1, SVG Export Plug-In . SVG Version: 6.00 Build 0)  -->
<svg version="1.1" id="Capa_4" xmlns="http://www.w3.org/2000/svg" xmlns:xlink="http://www.w3.org/1999/xlink" x="0px" y="0px"
	 viewBox="0 0 378.6 153.5" style="enable-background:new 0 0 378.6 153.5;" xml:space="preserve">
<style type="text/css">
	.st0{fill:#FFFFFF;}
	.st1{fill:#2BA6C4;}
	.st2{fill:#E00570;}
</style>
<title>logo_plumidea</title>
<path class="st0" d="M6.5,150.8c-1.7,1.8-4.1,2.8-6.5,2.7v-33c-0.1-5.9,2.3-11.6,6.6-15.6c4.1-4.2,9.8-6.6,15.7-6.5
	c12.2-0.1,22.1,9.8,22.2,22c0,5.7-2.1,11.1-6,15.2l-0.5,0.5c-4.2,4.2-9.9,6.5-15.8,6.4h-13v1.8C9.4,146.8,8.4,149.1,6.5,150.8
	 M22.3,133.8c3.5,0.1,6.8-1.4,9.2-3.9c2.5-2.5,3.8-5.8,3.8-9.3c0-3.5-1.3-6.9-3.8-9.4c-4.9-5.1-13-5.3-18.1-0.4
	c-0.1,0.1-0.3,0.3-0.4,0.4c-2.5,2.5-3.8,5.9-3.8,9.4v13.2H22.3z"/>
<path class="st0" d="M60.2,120.5c-0.1,3.5,1.3,6.9,3.8,9.3c2.4,2.5,5.8,4,9.3,3.9h4.2c4.8,0,8.8,3.9,8.8,8.7v0l0,0h-13
	c-5.9,0.1-11.6-2.2-15.7-6.4c-4.3-4-6.7-9.7-6.6-15.6v-22c5.1,0,9.2,4.2,9.3,9.3L60.2,120.5L60.2,120.5L60.2,120.5z"/>
<path class="st0" d="M122.1,107.7c0-5.1,4.2-9.2,9.3-9.2v22c0.1,5.9-2.3,11.5-6.6,15.6c-8.7,8.6-22.7,8.6-31.5,0
	c-4.3-4.1-6.6-9.7-6.5-15.6v-22c5.1,0,9.2,4.2,9.3,9.2v12.7c-0.1,3.5,1.3,6.9,3.8,9.4c4.9,5.1,12.9,5.3,18,0.4l0.4-0.4
	c2.5-2.5,3.8-5.9,3.8-9.4L122.1,107.7L122.1,107.7L122.1,107.7z"/>
<path class="st0" d="M183,120.5v22c-5.1,0-9.2-4.2-9.2-9.3v-12.7c0-3.5-1.3-6.9-3.8-9.4c-4.9-5.1-13-5.3-18.1-0.4l-0.4,0.4
	c-2.5,2.5-3.8,5.9-3.8,9.4v12.7c0,5.1-4.1,9.2-9.1,9.2c0,0,0,0,0,0h-0.1v-22c-0.1-5.9,2.3-11.6,6.6-15.6c4.1-4.2,9.8-6.6,15.7-6.5
	c3.4,0,6.8,0.8,9.8,2.3c3.1,1.5,5.8,3.7,7.9,6.4c2.1-2.7,4.8-4.8,7.8-6.3c3-1.5,6.4-2.3,9.8-2.3c5.9-0.1,11.6,2.3,15.7,6.5
	c4.3,4.1,6.7,9.8,6.5,15.7v22c-5.1,0-9.2-4.2-9.3-9.2v-12.8c0-3.5-1.3-6.9-3.8-9.4c-4.9-5.1-13-5.3-18.1-0.4l-0.4,0.4
	C184.3,113.6,182.9,117,183,120.5"/>
<path class="st1" d="M234.6,142.5c-5.1,0-9.3-4.1-9.3-9.2V98.4c5.1,0,9.2,4.2,9.3,9.3L234.6,142.5L234.6,142.5z"/>
<path class="st1" d="M248.6,104.9c8.7-8.6,22.8-8.6,31.5,0c8.6,8.4,8.8,22.1,0.5,30.7l-0.5,0.5c-4.2,4.2-9.9,6.5-15.8,6.4H242v-22
	C241.9,114.6,244.3,109,248.6,104.9 M264.3,133.8c3.5,0.1,6.8-1.4,9.2-3.9c2.5-2.5,3.8-5.8,3.8-9.3c0.1-3.5-1.3-6.9-3.8-9.4
	c-4.9-5.1-13-5.3-18-0.4l-0.4,0.4c-2.5,2.5-3.8,5.9-3.8,9.4v13.2H264.3L264.3,133.8z"/>
<path class="st1" d="M315.3,142.5c-12.1,0.1-22.1-9.6-22.2-21.8c-0.1-5.8,2.2-11.3,6.2-15.5l0.4-0.3c4.1-4.2,9.8-6.6,15.7-6.5h13.1
	c0,2.3-0.9,4.6-2.6,6.2c-1.6,1.7-3.9,2.6-6.2,2.6h-4.2c-3.5,0-6.8,1.4-9.2,4c-2.5,2.5-3.8,5.9-3.8,9.4c0,3.5,1.3,6.9,3.8,9.3
	c2.4,2.5,5.7,4,9.2,3.9h4.2c2.4,0,4.6,0.9,6.3,2.6c1.7,1.6,2.6,3.9,2.6,6.2L315.3,142.5L315.3,142.5L315.3,142.5z M310.2,116.1h16.2
	c0,2.3-0.9,4.6-2.6,6.2c-1.6,1.7-3.9,2.6-6.2,2.5h-7.3c-1.2,0-2.3-0.4-3.1-1.2c-0.8-0.8-1.3-1.9-1.3-3.1c0-1.2,0.4-2.3,1.2-3.2
	C307.9,116.5,309,116,310.2,116.1"/>
<path class="st1" d="M378.6,120.5v22h-22.4c-12.1,0.1-22.1-9.6-22.2-21.8c-0.1-5.7,2.1-11.3,6.1-15.4l0.4-0.4
	c8.7-8.6,22.8-8.6,31.5,0C376.3,109,378.7,114.6,378.6,120.5 M369.3,133.8v-13.3c0.1-3.5-1.3-6.9-3.8-9.4c-4.9-5.1-13-5.3-18.1-0.4
	c0,0,0,0,0,0l-0.4,0.4c-2.5,2.5-3.8,5.9-3.8,9.4c-0.1,3.5,1.3,6.9,3.8,9.3c2.4,2.5,5.8,4,9.2,3.9L369.3,133.8L369.3,133.8z"/>
<path class="st1" d="M153.8,9.8c-8.9,4.8-14.6,13.9-15.2,23.9c-1.1,16,5.8,31.8,5.8,31.8s1.6,6.7,9.2,11.6c4.4,2.9,9.8,4.1,15,3.3
	l34-3.2l20.9,10.5l-1.2-14.4c0,0,16.2-2.5,12-34.7C230,6.6,217,2.1,209.2,0.8c-7.7-1.3-20.4-0.9-32.2,1S153.8,9.8,153.8,9.8"/>
<path class="st0" d="M216.1,38.8c0.5,16.4-12.3,30.1-28.7,30.6C171,70,157.3,57.1,156.8,40.7c-0.5-16.4,12.3-30.1,28.7-30.6l0,0
	C201.9,9.6,215.6,22.4,216.1,38.8C216.1,38.8,216.1,38.8,216.1,38.8L216.1,38.8"/>
<path class="st2" d="M201,39.3c0.3,8-6,14.7-14,14.9c-8,0.3-14.7-6-14.9-14c-0.3-8,6-14.7,14-14.9l0,0C194.1,25,200.8,31.3,201,39.3
	"/>
</svg>
